<svg xmlns="http://www.w3.org/2000/svg" height="256px" width="256px" viewBox="0 0 1024 1024">
    <path fill="#7165E3"
          d="M486.99,831.37c135.52,0 245.76,-106.25 245.76,-236.83 0,-43.29 -12.27,-85.69 -35.82,-123.13L503.79,185.04c-3.81,-5.65 -10.18,-9.03 -16.98,-9.03 -6.82,0 -13.19,3.4 -16.98,9.03l-193.25,287.09c-23.12,36.82 -35.35,79.16 -35.35,122.39C241.23,725.11 351.48,831.37 486.99,831.37zM310.91,494.47l175.92,-261.32 175.8,260.63c19.11,30.35 29.18,65.21 29.18,100.76 0,108.01 -91.87,195.87 -204.8,195.87s-204.8,-87.88 -204.8,-195.87C282.19,559 292.27,524.21 310.91,494.47z"/>
</svg>
